<svg width="1158" height="375" viewBox="0 0 1158 375" fill="none" xmlns="http://www.w3.org/2000/svg">
<path d="M42 256.5H103V275H19.25V100.75H42V256.5ZM515.762 151.25C510.928 141.083 503.928 133.25 494.762 127.75C485.595 122.083 474.928 119.25 462.762 119.25C450.595 119.25 439.595 122.083 429.762 127.75C420.095 133.25 412.428 141.25 406.762 151.75C401.262 162.083 398.512 174.083 398.512 187.75C398.512 201.417 401.262 213.417 406.762 223.75C412.428 234.083 420.095 242.083 429.762 247.75C439.595 253.25 450.595 256 462.762 256C479.762 256 493.762 250.917 504.762 240.75C515.762 230.583 522.178 216.833 524.012 199.5H454.512V181H548.262V198.5C546.928 212.833 542.428 226 534.762 238C527.095 249.833 517.012 259.25 504.512 266.25C492.012 273.083 478.095 276.5 462.762 276.5C446.595 276.5 431.845 272.75 418.512 265.25C405.178 257.583 394.595 247 386.762 233.5C379.095 220 375.262 204.75 375.262 187.75C375.262 170.75 379.095 155.5 386.762 142C394.595 128.333 405.178 117.75 418.512 110.25C431.845 102.583 446.595 98.75 462.762 98.75C481.262 98.75 497.595 103.333 511.762 112.5C526.095 121.667 536.512 134.583 543.012 151.25H515.762ZM601.092 100.75V275H578.342V100.75H601.092ZM695.115 276.75C683.615 276.75 673.282 274.75 664.115 270.75C655.115 266.583 648.032 260.917 642.865 253.75C637.699 246.417 635.032 238 634.865 228.5H659.115C659.949 236.667 663.282 243.583 669.115 249.25C675.115 254.75 683.782 257.5 695.115 257.5C705.949 257.5 714.449 254.833 720.615 249.5C726.949 244 730.115 237 730.115 228.5C730.115 221.833 728.282 216.417 724.615 212.25C720.949 208.083 716.365 204.917 710.865 202.75C705.365 200.583 697.949 198.25 688.615 195.75C677.115 192.75 667.865 189.75 660.865 186.75C654.032 183.75 648.115 179.083 643.115 172.75C638.282 166.25 635.865 157.583 635.865 146.75C635.865 137.25 638.282 128.833 643.115 121.5C647.949 114.167 654.699 108.5 663.365 104.5C672.199 100.5 682.282 98.5 693.615 98.5C709.949 98.5 723.282 102.583 733.615 110.75C744.115 118.917 750.032 129.75 751.365 143.25H726.365C725.532 136.583 722.032 130.75 715.865 125.75C709.699 120.583 701.532 118 691.365 118C681.865 118 674.115 120.5 668.115 125.5C662.115 130.333 659.115 137.167 659.115 146C659.115 152.333 660.865 157.5 664.365 161.5C668.032 165.5 672.449 168.583 677.615 170.75C682.949 172.75 690.365 175.083 699.865 177.75C711.365 180.917 720.615 184.083 727.615 187.25C734.615 190.25 740.615 195 745.615 201.5C750.615 207.833 753.115 216.5 753.115 227.5C753.115 236 750.865 244 746.365 251.5C741.865 259 735.199 265.083 726.365 269.75C717.532 274.417 707.115 276.75 695.115 276.75ZM893.844 100.75V119.25H846.344V275H823.594V119.25H775.844V100.75H893.844ZM944.598 100.75V275H921.848V100.75H944.598ZM974.871 187.75C974.871 170.75 978.704 155.5 986.371 142C994.038 128.333 1004.45 117.667 1017.62 110C1030.95 102.333 1045.7 98.5 1061.87 98.5C1080.87 98.5 1097.45 103.083 1111.62 112.25C1125.79 121.417 1136.12 134.417 1142.62 151.25H1115.37C1110.54 140.75 1103.54 132.667 1094.37 127C1085.37 121.333 1074.54 118.5 1061.87 118.5C1049.7 118.5 1038.79 121.333 1029.12 127C1019.45 132.667 1011.87 140.75 1006.37 151.25C1000.87 161.583 998.121 173.75 998.121 187.75C998.121 201.583 1000.87 213.75 1006.37 224.25C1011.87 234.583 1019.45 242.583 1029.12 248.25C1038.79 253.917 1049.7 256.75 1061.87 256.75C1074.54 256.75 1085.37 254 1094.37 248.5C1103.54 242.833 1110.54 234.75 1115.37 224.25H1142.62C1136.12 240.917 1125.79 253.833 1111.62 263C1097.45 272 1080.87 276.5 1061.87 276.5C1045.7 276.5 1030.95 272.75 1017.62 265.25C1004.45 257.583 994.038 247 986.371 233.5C978.704 220 974.871 204.75 974.871 187.75Z" fill="#004EDA"/>
<path d="M131.5 247L202.72 237.69C205.518 237.324 208 239.503 208 242.325C208 244.907 205.907 247 203.325 247H140H131.5Z" fill="#3B3B40"/>
<path d="M145.5 261L214.713 251.71C217.512 251.334 220 253.511 220 256.334C220 258.911 217.911 261 215.334 261H152H145.5Z" fill="#3B3B40"/>
<path d="M135 275L206.721 265.686C209.52 265.322 212 267.501 212 270.323C212 272.906 209.906 275 207.323 275H144H135Z" fill="#3B3B40"/>
<path opacity="0.2" d="M317.695 196.926H221.445V220.988C221.445 222.265 221.952 223.489 222.855 224.391C223.757 225.294 224.981 225.801 226.258 225.801H238.289C238.289 221.972 239.81 218.299 242.518 215.592C245.225 212.884 248.897 211.363 252.727 211.363C256.556 211.363 260.228 212.884 262.935 215.592C265.643 218.299 267.164 221.972 267.164 225.801H310.477C310.475 223.265 311.141 220.773 312.409 218.577C313.676 216.38 315.499 214.556 317.695 213.288V196.926Z" fill="#3B3B40"/>
<path opacity="0.2" d="M339.352 225.801C339.353 223.266 338.687 220.775 337.421 218.579C336.154 216.383 334.332 214.559 332.137 213.291C329.942 212.022 327.451 211.354 324.916 211.354C322.381 211.354 319.891 212.021 317.695 213.288V182.488H356.195V220.988C356.195 222.265 355.688 223.489 354.786 224.391C353.883 225.294 352.659 225.801 351.383 225.801H339.352Z" fill="#3B3B40"/>
<path d="M317.695 158.426H343.322C344.281 158.42 345.219 158.704 346.013 159.24C346.808 159.777 347.421 160.542 347.773 161.434L356.195 182.488" stroke="#3B3B40" stroke-width="6" stroke-linecap="round" stroke-linejoin="round"/>
<path d="M221.445 196.926H317.695" stroke="#3B3B40" stroke-width="6" stroke-linecap="round" stroke-linejoin="round"/>
<path d="M324.914 240.238C332.888 240.238 339.352 233.774 339.352 225.801C339.352 217.827 332.888 211.363 324.914 211.363C316.94 211.363 310.477 217.827 310.477 225.801C310.477 233.774 316.94 240.238 324.914 240.238Z" stroke="#3B3B40" stroke-width="6" stroke-miterlimit="10"/>
<path d="M252.727 240.238C260.7 240.238 267.164 233.774 267.164 225.801C267.164 217.827 260.7 211.363 252.727 211.363C244.753 211.363 238.289 217.827 238.289 225.801C238.289 233.774 244.753 240.238 252.727 240.238Z" stroke="#3B3B40" stroke-width="6" stroke-miterlimit="10"/>
<path d="M310.477 225.801H267.164" stroke="#3B3B40" stroke-width="6" stroke-linecap="round" stroke-linejoin="round"/>
<path d="M238.289 225.801H226.258C224.981 225.801 223.757 225.294 222.855 224.391C221.952 223.489 221.445 222.265 221.445 220.988V153.613C221.445 152.337 221.952 151.113 222.855 150.21C223.757 149.308 224.981 148.801 226.258 148.801H317.695V213.288" stroke="#3B3B40" stroke-width="6" stroke-linecap="round" stroke-linejoin="round"/>
<path d="M317.695 182.488H356.195V220.988C356.195 222.265 355.688 223.489 354.786 224.391C353.883 225.294 352.659 225.801 351.383 225.801H339.352" stroke="#3B3B40" stroke-width="6" stroke-linecap="round" stroke-linejoin="round"/>
<path d="M65.048 351.528C65.3893 351.528 65.688 351.667 65.944 351.944L68.408 354.6C66.5307 356.776 64.248 358.472 61.56 359.688C58.8933 360.904 55.6613 361.512 51.864 361.512C48.5787 361.512 45.592 360.947 42.904 359.816C40.216 358.664 37.9227 357.064 36.024 355.016C34.1253 352.947 32.6533 350.472 31.608 347.592C30.5627 344.712 30.04 341.544 30.04 338.088C30.04 334.632 30.584 331.464 31.672 328.584C32.76 325.704 34.2853 323.229 36.248 321.16C38.232 319.091 40.6 317.491 43.352 316.36C46.104 315.208 49.144 314.632 52.472 314.632C55.736 314.632 58.616 315.155 61.112 316.2C63.608 317.245 65.8053 318.664 67.704 320.456L65.656 323.304C65.528 323.517 65.3573 323.699 65.144 323.848C64.952 323.976 64.6853 324.04 64.344 324.04C63.96 324.04 63.4907 323.837 62.936 323.432C62.3813 323.005 61.656 322.536 60.76 322.024C59.864 321.512 58.744 321.053 57.4 320.648C56.056 320.221 54.4027 320.008 52.44 320.008C50.072 320.008 47.9067 320.424 45.944 321.256C43.9813 322.067 42.2853 323.251 40.856 324.808C39.448 326.365 38.3493 328.264 37.56 330.504C36.7707 332.744 36.376 335.272 36.376 338.088C36.376 340.947 36.7813 343.496 37.592 345.736C38.424 347.976 39.544 349.875 40.952 351.432C42.3813 352.968 44.056 354.141 45.976 354.952C47.9173 355.763 50.008 356.168 52.248 356.168C53.6133 356.168 54.84 356.093 55.928 355.944C57.0373 355.773 58.0507 355.517 58.968 355.176C59.9067 354.835 60.7707 354.408 61.56 353.896C62.3707 353.363 63.1707 352.733 63.96 352.008C64.3227 351.688 64.6853 351.528 65.048 351.528ZM97.541 328.072C99.909 328.072 102.042 328.467 103.941 329.256C105.84 330.045 107.461 331.165 108.805 332.616C110.149 334.067 111.173 335.827 111.877 337.896C112.602 339.944 112.965 342.237 112.965 344.776C112.965 347.336 112.602 349.64 111.877 351.688C111.173 353.736 110.149 355.485 108.805 356.936C107.461 358.387 105.84 359.507 103.941 360.296C102.042 361.064 99.909 361.448 97.541 361.448C95.1517 361.448 92.997 361.064 91.077 360.296C89.1783 359.507 87.557 358.387 86.213 356.936C84.869 355.485 83.8343 353.736 83.109 351.688C82.405 349.64 82.053 347.336 82.053 344.776C82.053 342.237 82.405 339.944 83.109 337.896C83.8343 335.827 84.869 334.067 86.213 332.616C87.557 331.165 89.1783 330.045 91.077 329.256C92.997 328.467 95.1517 328.072 97.541 328.072ZM97.541 357C100.741 357 103.13 355.933 104.709 353.8C106.288 351.645 107.077 348.648 107.077 344.808C107.077 340.947 106.288 337.939 104.709 335.784C103.13 333.629 100.741 332.552 97.541 332.552C95.9197 332.552 94.501 332.829 93.285 333.384C92.0903 333.939 91.0877 334.739 90.277 335.784C89.4877 336.829 88.8903 338.12 88.485 339.656C88.101 341.171 87.909 342.888 87.909 344.808C87.909 348.648 88.6983 351.645 90.277 353.8C91.877 355.933 94.2983 357 97.541 357ZM135.805 333.288C136.509 332.499 137.256 331.784 138.045 331.144C138.835 330.504 139.667 329.96 140.541 329.512C141.437 329.043 142.376 328.691 143.357 328.456C144.36 328.2 145.437 328.072 146.589 328.072C148.36 328.072 149.917 328.371 151.261 328.968C152.627 329.544 153.757 330.376 154.653 331.464C155.571 332.531 156.264 333.821 156.733 335.336C157.203 336.851 157.437 338.525 157.437 340.36V361H151.709V340.36C151.709 337.907 151.144 336.008 150.013 334.664C148.904 333.299 147.208 332.616 144.925 332.616C143.24 332.616 141.661 333.021 140.189 333.832C138.739 334.643 137.395 335.741 136.157 337.128V361H130.429V328.584H133.853C134.664 328.584 135.165 328.979 135.357 329.768L135.805 333.288ZM181.733 333.288C182.437 332.499 183.184 331.784 183.973 331.144C184.762 330.504 185.594 329.96 186.469 329.512C187.365 329.043 188.304 328.691 189.285 328.456C190.288 328.2 191.365 328.072 192.517 328.072C194.288 328.072 195.845 328.371 197.189 328.968C198.554 329.544 199.685 330.376 200.581 331.464C201.498 332.531 202.192 333.821 202.661 335.336C203.13 336.851 203.365 338.525 203.365 340.36V361H197.637V340.36C197.637 337.907 197.072 336.008 195.941 334.664C194.832 333.299 193.136 332.616 190.853 332.616C189.168 332.616 187.589 333.021 186.117 333.832C184.666 334.643 183.322 335.741 182.085 337.128V361H176.357V328.584H179.781C180.592 328.584 181.093 328.979 181.285 329.768L181.733 333.288ZM243.98 341.256C243.98 339.933 243.788 338.728 243.404 337.64C243.042 336.531 242.498 335.581 241.772 334.792C241.068 333.981 240.204 333.363 239.18 332.936C238.156 332.488 236.994 332.264 235.692 332.264C232.962 332.264 230.796 333.064 229.196 334.664C227.618 336.243 226.636 338.44 226.252 341.256H243.98ZM248.588 356.456C247.884 357.309 247.042 358.056 246.06 358.696C245.079 359.315 244.023 359.827 242.892 360.232C241.783 360.637 240.631 360.936 239.436 361.128C238.242 361.341 237.058 361.448 235.884 361.448C233.644 361.448 231.575 361.075 229.676 360.328C227.799 359.56 226.167 358.451 224.78 357C223.415 355.528 222.348 353.715 221.58 351.56C220.812 349.405 220.428 346.931 220.428 344.136C220.428 341.875 220.77 339.763 221.452 337.8C222.156 335.837 223.159 334.141 224.46 332.712C225.762 331.261 227.351 330.131 229.228 329.32C231.106 328.488 233.218 328.072 235.564 328.072C237.506 328.072 239.298 328.403 240.94 329.064C242.604 329.704 244.034 330.643 245.228 331.88C246.444 333.096 247.394 334.611 248.076 336.424C248.759 338.216 249.1 340.264 249.1 342.568C249.1 343.464 249.004 344.061 248.812 344.36C248.62 344.659 248.258 344.808 247.724 344.808H226.06C226.124 346.856 226.402 348.637 226.892 350.152C227.404 351.667 228.108 352.936 229.004 353.96C229.9 354.963 230.967 355.72 232.204 356.232C233.442 356.723 234.828 356.968 236.364 356.968C237.794 356.968 239.02 356.808 240.044 356.488C241.09 356.147 241.986 355.784 242.732 355.4C243.479 355.016 244.098 354.664 244.588 354.344C245.1 354.003 245.538 353.832 245.9 353.832C246.37 353.832 246.732 354.013 246.988 354.376L248.588 356.456ZM288.897 334.344C288.726 334.579 288.556 334.76 288.385 334.888C288.214 335.016 287.98 335.08 287.681 335.08C287.361 335.08 287.009 334.952 286.625 334.696C286.241 334.419 285.761 334.12 285.185 333.8C284.63 333.48 283.937 333.192 283.105 332.936C282.294 332.659 281.292 332.52 280.097 332.52C278.497 332.52 277.089 332.808 275.873 333.384C274.657 333.939 273.633 334.749 272.801 335.816C271.99 336.883 271.372 338.173 270.945 339.688C270.54 341.203 270.337 342.899 270.337 344.776C270.337 346.739 270.561 348.488 271.009 350.024C271.457 351.539 272.086 352.819 272.897 353.864C273.729 354.888 274.721 355.677 275.873 356.232C277.046 356.765 278.358 357.032 279.809 357.032C281.196 357.032 282.337 356.872 283.233 356.552C284.129 356.211 284.865 355.837 285.441 355.432C286.038 355.027 286.529 354.664 286.913 354.344C287.318 354.003 287.713 353.832 288.097 353.832C288.566 353.832 288.929 354.013 289.185 354.376L290.785 356.456C290.081 357.331 289.281 358.077 288.385 358.696C287.489 359.315 286.518 359.837 285.473 360.264C284.449 360.669 283.372 360.968 282.241 361.16C281.11 361.352 279.958 361.448 278.785 361.448C276.758 361.448 274.87 361.075 273.121 360.328C271.393 359.581 269.889 358.504 268.609 357.096C267.329 355.667 266.326 353.917 265.601 351.848C264.876 349.779 264.513 347.421 264.513 344.776C264.513 342.365 264.844 340.136 265.505 338.088C266.188 336.04 267.169 334.28 268.449 332.808C269.75 331.315 271.34 330.152 273.217 329.32C275.116 328.488 277.292 328.072 279.745 328.072C282.028 328.072 284.033 328.445 285.761 329.192C287.51 329.917 289.057 330.952 290.401 332.296L288.897 334.344ZM317.092 361.512C314.532 361.512 312.558 360.797 311.172 359.368C309.806 357.939 309.124 355.88 309.124 353.192V333.352H305.22C304.878 333.352 304.59 333.256 304.356 333.064C304.121 332.851 304.004 332.531 304.004 332.104V329.832L309.316 329.16L310.628 319.144C310.692 318.824 310.83 318.568 311.044 318.376C311.278 318.163 311.577 318.056 311.94 318.056H314.82V329.224H324.196V333.352H314.82V352.808C314.82 354.173 315.15 355.187 315.812 355.848C316.473 356.509 317.326 356.84 318.372 356.84C318.969 356.84 319.481 356.765 319.908 356.616C320.356 356.445 320.74 356.264 321.06 356.072C321.38 355.88 321.646 355.709 321.86 355.56C322.094 355.389 322.297 355.304 322.468 355.304C322.766 355.304 323.033 355.485 323.268 355.848L324.932 358.568C323.95 359.485 322.766 360.211 321.38 360.744C319.993 361.256 318.564 361.512 317.092 361.512ZM426.825 315.144L412.521 361H406.953L395.337 326.024C395.23 325.683 395.124 325.32 395.017 324.936C394.932 324.552 394.836 324.147 394.729 323.72C394.622 324.147 394.516 324.552 394.409 324.936C394.302 325.32 394.196 325.683 394.089 326.024L382.409 361H376.841L362.537 315.144H367.689C368.244 315.144 368.702 315.283 369.065 315.56C369.449 315.837 369.694 316.189 369.801 316.616L379.273 348.488C379.422 349.064 379.561 349.683 379.689 350.344C379.838 351.005 379.977 351.709 380.105 352.456C380.254 351.709 380.404 351.005 380.553 350.344C380.724 349.661 380.905 349.043 381.097 348.488L391.881 316.616C392.009 316.253 392.254 315.923 392.617 315.624C393.001 315.304 393.46 315.144 393.993 315.144H395.785C396.34 315.144 396.788 315.283 397.129 315.56C397.47 315.837 397.726 316.189 397.897 316.616L408.649 348.488C408.841 349.043 409.012 349.64 409.161 350.28C409.332 350.92 409.492 351.592 409.641 352.296C409.748 351.592 409.865 350.92 409.993 350.28C410.121 349.64 410.26 349.043 410.409 348.488L419.913 316.616C420.02 316.232 420.254 315.891 420.617 315.592C421.001 315.293 421.46 315.144 421.993 315.144H426.825ZM448.313 328.584V361H442.617V328.584H448.313ZM449.529 318.408C449.529 318.963 449.412 319.485 449.177 319.976C448.964 320.445 448.665 320.872 448.281 321.256C447.918 321.619 447.481 321.907 446.969 322.12C446.478 322.333 445.956 322.44 445.401 322.44C444.846 322.44 444.324 322.333 443.833 322.12C443.364 321.907 442.948 321.619 442.585 321.256C442.222 320.872 441.934 320.445 441.721 319.976C441.508 319.485 441.401 318.963 441.401 318.408C441.401 317.853 441.508 317.331 441.721 316.84C441.934 316.328 442.222 315.891 442.585 315.528C442.948 315.144 443.364 314.845 443.833 314.632C444.324 314.419 444.846 314.312 445.401 314.312C445.956 314.312 446.478 314.419 446.969 314.632C447.481 314.845 447.918 315.144 448.281 315.528C448.665 315.891 448.964 316.328 449.177 316.84C449.412 317.331 449.529 317.853 449.529 318.408ZM477.864 361.512C475.304 361.512 473.331 360.797 471.944 359.368C470.579 357.939 469.896 355.88 469.896 353.192V333.352H465.992C465.651 333.352 465.363 333.256 465.128 333.064C464.893 332.851 464.776 332.531 464.776 332.104V329.832L470.088 329.16L471.4 319.144C471.464 318.824 471.603 318.568 471.816 318.376C472.051 318.163 472.349 318.056 472.712 318.056H475.592V329.224H484.968V333.352H475.592V352.808C475.592 354.173 475.923 355.187 476.584 355.848C477.245 356.509 478.099 356.84 479.144 356.84C479.741 356.84 480.253 356.765 480.68 356.616C481.128 356.445 481.512 356.264 481.832 356.072C482.152 355.88 482.419 355.709 482.632 355.56C482.867 355.389 483.069 355.304 483.24 355.304C483.539 355.304 483.805 355.485 484.04 355.848L485.704 358.568C484.723 359.485 483.539 360.211 482.152 360.744C480.765 361.256 479.336 361.512 477.864 361.512ZM506.817 332.904C508.204 331.432 509.74 330.259 511.425 329.384C513.111 328.509 515.052 328.072 517.249 328.072C519.02 328.072 520.577 328.371 521.921 328.968C523.287 329.544 524.417 330.376 525.313 331.464C526.231 332.531 526.924 333.821 527.393 335.336C527.863 336.851 528.097 338.525 528.097 340.36V361H522.369V340.36C522.369 337.907 521.804 336.008 520.673 334.664C519.564 333.299 517.868 332.616 515.585 332.616C513.9 332.616 512.321 333.021 510.849 333.832C509.399 334.643 508.055 335.741 506.817 337.128V361H501.089V313.864H506.817V332.904ZM604.046 320.36H589.198V361H583.022V320.36H568.142V315.144H604.046V320.36ZM624.912 332.904C626.299 331.432 627.835 330.259 629.52 329.384C631.206 328.509 633.147 328.072 635.344 328.072C637.115 328.072 638.672 328.371 640.016 328.968C641.382 329.544 642.512 330.376 643.408 331.464C644.326 332.531 645.019 333.821 645.488 335.336C645.958 336.851 646.192 338.525 646.192 340.36V361H640.464V340.36C640.464 337.907 639.899 336.008 638.768 334.664C637.659 333.299 635.963 332.616 633.68 332.616C631.995 332.616 630.416 333.021 628.944 333.832C627.494 334.643 626.15 335.741 624.912 337.128V361H619.184V313.864H624.912V332.904ZM686.808 341.256C686.808 339.933 686.616 338.728 686.232 337.64C685.869 336.531 685.325 335.581 684.6 334.792C683.896 333.981 683.032 333.363 682.008 332.936C680.984 332.488 679.821 332.264 678.52 332.264C675.789 332.264 673.624 333.064 672.024 334.664C670.445 336.243 669.464 338.44 669.08 341.256H686.808ZM691.416 356.456C690.712 357.309 689.869 358.056 688.888 358.696C687.907 359.315 686.851 359.827 685.72 360.232C684.611 360.637 683.459 360.936 682.264 361.128C681.069 361.341 679.885 361.448 678.712 361.448C676.472 361.448 674.403 361.075 672.504 360.328C670.627 359.56 668.995 358.451 667.608 357C666.243 355.528 665.176 353.715 664.408 351.56C663.64 349.405 663.256 346.931 663.256 344.136C663.256 341.875 663.597 339.763 664.28 337.8C664.984 335.837 665.987 334.141 667.288 332.712C668.589 331.261 670.179 330.131 672.056 329.32C673.933 328.488 676.045 328.072 678.392 328.072C680.333 328.072 682.125 328.403 683.768 329.064C685.432 329.704 686.861 330.643 688.056 331.88C689.272 333.096 690.221 334.611 690.904 336.424C691.587 338.216 691.928 340.264 691.928 342.568C691.928 343.464 691.832 344.061 691.64 344.36C691.448 344.659 691.085 344.808 690.552 344.808H668.888C668.952 346.856 669.229 348.637 669.72 350.152C670.232 351.667 670.936 352.936 671.832 353.96C672.728 354.963 673.795 355.72 675.032 356.232C676.269 356.723 677.656 356.968 679.192 356.968C680.621 356.968 681.848 356.808 682.872 356.488C683.917 356.147 684.813 355.784 685.56 355.4C686.307 355.016 686.925 354.664 687.416 354.344C687.928 354.003 688.365 353.832 688.728 353.832C689.197 353.832 689.56 354.013 689.816 354.376L691.416 356.456ZM795.673 315.144L781.369 361H775.801L764.185 326.024C764.078 325.683 763.971 325.32 763.865 324.936C763.779 324.552 763.683 324.147 763.577 323.72C763.47 324.147 763.363 324.552 763.257 324.936C763.15 325.32 763.043 325.683 762.937 326.024L751.257 361H745.689L731.385 315.144H736.537C737.091 315.144 737.55 315.283 737.913 315.56C738.297 315.837 738.542 316.189 738.649 316.616L748.121 348.488C748.27 349.064 748.409 349.683 748.537 350.344C748.686 351.005 748.825 351.709 748.953 352.456C749.102 351.709 749.251 351.005 749.401 350.344C749.571 349.661 749.753 349.043 749.945 348.488L760.729 316.616C760.857 316.253 761.102 315.923 761.465 315.624C761.849 315.304 762.307 315.144 762.841 315.144H764.633C765.187 315.144 765.635 315.283 765.977 315.56C766.318 315.837 766.574 316.189 766.745 316.616L777.497 348.488C777.689 349.043 777.859 349.64 778.009 350.28C778.179 350.92 778.339 351.592 778.489 352.296C778.595 351.592 778.713 350.92 778.841 350.28C778.969 349.64 779.107 349.043 779.257 348.488L788.761 316.616C788.867 316.232 789.102 315.891 789.465 315.592C789.849 315.293 790.307 315.144 790.841 315.144H795.673ZM821.434 328.072C823.802 328.072 825.935 328.467 827.834 329.256C829.732 330.045 831.354 331.165 832.698 332.616C834.042 334.067 835.066 335.827 835.77 337.896C836.495 339.944 836.858 342.237 836.858 344.776C836.858 347.336 836.495 349.64 835.77 351.688C835.066 353.736 834.042 355.485 832.698 356.936C831.354 358.387 829.732 359.507 827.834 360.296C825.935 361.064 823.802 361.448 821.434 361.448C819.044 361.448 816.89 361.064 814.97 360.296C813.071 359.507 811.45 358.387 810.106 356.936C808.762 355.485 807.727 353.736 807.002 351.688C806.298 349.64 805.946 347.336 805.946 344.776C805.946 342.237 806.298 339.944 807.002 337.896C807.727 335.827 808.762 334.067 810.106 332.616C811.45 331.165 813.071 330.045 814.97 329.256C816.89 328.467 819.044 328.072 821.434 328.072ZM821.434 357C824.634 357 827.023 355.933 828.602 353.8C830.18 351.645 830.97 348.648 830.97 344.808C830.97 340.947 830.18 337.939 828.602 335.784C827.023 333.629 824.634 332.552 821.434 332.552C819.812 332.552 818.394 332.829 817.178 333.384C815.983 333.939 814.98 334.739 814.17 335.784C813.38 336.829 812.783 338.12 812.378 339.656C811.994 341.171 811.802 342.888 811.802 344.808C811.802 348.648 812.591 351.645 814.17 353.8C815.77 355.933 818.191 357 821.434 357ZM859.73 335.08C860.754 332.861 862.013 331.133 863.506 329.896C864.999 328.637 866.823 328.008 868.978 328.008C869.661 328.008 870.311 328.083 870.93 328.232C871.57 328.381 872.135 328.616 872.626 328.936L872.21 333.192C872.082 333.725 871.762 333.992 871.25 333.992C870.951 333.992 870.514 333.928 869.938 333.8C869.362 333.672 868.711 333.608 867.986 333.608C866.962 333.608 866.045 333.757 865.234 334.056C864.445 334.355 863.73 334.803 863.09 335.4C862.471 335.976 861.906 336.701 861.394 337.576C860.903 338.429 860.455 339.411 860.05 340.52V361H854.322V328.584H857.586C858.205 328.584 858.631 328.701 858.866 328.936C859.101 329.171 859.261 329.576 859.346 330.152L859.73 335.08ZM893.762 313.864V361H888.066V313.864H893.762ZM934.359 336.296C933.293 334.867 932.141 333.875 930.903 333.32C929.666 332.744 928.279 332.456 926.743 332.456C923.735 332.456 921.421 333.533 919.799 335.688C918.178 337.843 917.367 340.915 917.367 344.904C917.367 347.016 917.549 348.829 917.911 350.344C918.274 351.837 918.807 353.075 919.511 354.056C920.215 355.016 921.079 355.72 922.103 356.168C923.127 356.616 924.29 356.84 925.591 356.84C927.469 356.84 929.101 356.413 930.487 355.56C931.895 354.707 933.186 353.501 934.359 351.944V336.296ZM940.055 313.864V361H936.663C935.853 361 935.341 360.605 935.127 359.816L934.615 355.88C933.229 357.544 931.65 358.888 929.879 359.912C928.109 360.936 926.061 361.448 923.735 361.448C921.879 361.448 920.194 361.096 918.679 360.392C917.165 359.667 915.874 358.611 914.807 357.224C913.741 355.837 912.919 354.109 912.343 352.04C911.767 349.971 911.479 347.592 911.479 344.904C911.479 342.515 911.799 340.296 912.439 338.248C913.079 336.179 913.997 334.387 915.191 332.872C916.386 331.357 917.847 330.173 919.575 329.32C921.325 328.445 923.287 328.008 925.463 328.008C927.447 328.008 929.143 328.349 930.551 329.032C931.981 329.693 933.25 330.621 934.359 331.816V313.864H940.055ZM1024.4 315.144V361H1018.2V340.136H993.459V361H987.251V315.144H993.459V335.592H1018.2V315.144H1024.4ZM1065.72 341.256C1065.72 339.933 1065.53 338.728 1065.14 337.64C1064.78 336.531 1064.24 335.581 1063.51 334.792C1062.81 333.981 1061.94 333.363 1060.92 332.936C1059.89 332.488 1058.73 332.264 1057.43 332.264C1054.7 332.264 1052.53 333.064 1050.93 334.664C1049.36 336.243 1048.37 338.44 1047.99 341.256H1065.72ZM1070.33 356.456C1069.62 357.309 1068.78 358.056 1067.8 358.696C1066.82 359.315 1065.76 359.827 1064.63 360.232C1063.52 360.637 1062.37 360.936 1061.17 361.128C1059.98 361.341 1058.8 361.448 1057.62 361.448C1055.38 361.448 1053.31 361.075 1051.41 360.328C1049.54 359.56 1047.9 358.451 1046.52 357C1045.15 355.528 1044.09 353.715 1043.32 351.56C1042.55 349.405 1042.17 346.931 1042.17 344.136C1042.17 341.875 1042.51 339.763 1043.19 337.8C1043.89 335.837 1044.9 334.141 1046.2 332.712C1047.5 331.261 1049.09 330.131 1050.97 329.32C1052.84 328.488 1054.96 328.072 1057.3 328.072C1059.24 328.072 1061.04 328.403 1062.68 329.064C1064.34 329.704 1065.77 330.643 1066.97 331.88C1068.18 333.096 1069.13 334.611 1069.81 336.424C1070.5 338.216 1070.84 340.264 1070.84 342.568C1070.84 343.464 1070.74 344.061 1070.55 344.36C1070.36 344.659 1070 344.808 1069.46 344.808H1047.8C1047.86 346.856 1048.14 348.637 1048.63 350.152C1049.14 351.667 1049.85 352.936 1050.74 353.96C1051.64 354.963 1052.7 355.72 1053.94 356.232C1055.18 356.723 1056.57 356.968 1058.1 356.968C1059.53 356.968 1060.76 356.808 1061.78 356.488C1062.83 356.147 1063.72 355.784 1064.47 355.4C1065.22 355.016 1065.84 354.664 1066.33 354.344C1066.84 354.003 1067.28 353.832 1067.64 353.832C1068.11 353.832 1068.47 354.013 1068.73 354.376L1070.33 356.456ZM1093.48 335.08C1094.51 332.861 1095.77 331.133 1097.26 329.896C1098.75 328.637 1100.58 328.008 1102.73 328.008C1103.41 328.008 1104.06 328.083 1104.68 328.232C1105.32 328.381 1105.89 328.616 1106.38 328.936L1105.96 333.192C1105.83 333.725 1105.51 333.992 1105 333.992C1104.7 333.992 1104.27 333.928 1103.69 333.8C1103.11 333.672 1102.46 333.608 1101.74 333.608C1100.71 333.608 1099.8 333.757 1098.99 334.056C1098.2 334.355 1097.48 334.803 1096.84 335.4C1096.22 335.976 1095.66 336.701 1095.15 337.576C1094.66 338.429 1094.21 339.411 1093.8 340.52V361H1088.07V328.584H1091.34C1091.96 328.584 1092.38 328.701 1092.62 328.936C1092.85 329.171 1093.01 329.576 1093.1 330.152L1093.48 335.08ZM1142.01 341.256C1142.01 339.933 1141.82 338.728 1141.43 337.64C1141.07 336.531 1140.53 335.581 1139.8 334.792C1139.1 333.981 1138.23 333.363 1137.21 332.936C1136.19 332.488 1135.02 332.264 1133.72 332.264C1130.99 332.264 1128.83 333.064 1127.23 334.664C1125.65 336.243 1124.67 338.44 1124.28 341.256H1142.01ZM1146.62 356.456C1145.91 357.309 1145.07 358.056 1144.09 358.696C1143.11 359.315 1142.05 359.827 1140.92 360.232C1139.81 360.637 1138.66 360.936 1137.47 361.128C1136.27 361.341 1135.09 361.448 1133.91 361.448C1131.67 361.448 1129.61 361.075 1127.71 360.328C1125.83 359.56 1124.2 358.451 1122.81 357C1121.45 355.528 1120.38 353.715 1119.61 351.56C1118.84 349.405 1118.46 346.931 1118.46 344.136C1118.46 341.875 1118.8 339.763 1119.48 337.8C1120.19 335.837 1121.19 334.141 1122.49 332.712C1123.79 331.261 1125.38 330.131 1127.26 329.32C1129.14 328.488 1131.25 328.072 1133.59 328.072C1135.54 328.072 1137.33 328.403 1138.97 329.064C1140.63 329.704 1142.06 330.643 1143.26 331.88C1144.47 333.096 1145.42 334.611 1146.11 336.424C1146.79 338.216 1147.13 340.264 1147.13 342.568C1147.13 343.464 1147.03 344.061 1146.84 344.36C1146.65 344.659 1146.29 344.808 1145.75 344.808H1124.09C1124.15 346.856 1124.43 348.637 1124.92 350.152C1125.43 351.667 1126.14 352.936 1127.03 353.96C1127.93 354.963 1129 355.72 1130.23 356.232C1131.47 356.723 1132.86 356.968 1134.39 356.968C1135.82 356.968 1137.05 356.808 1138.07 356.488C1139.12 356.147 1140.02 355.784 1140.76 355.4C1141.51 355.016 1142.13 354.664 1142.62 354.344C1143.13 354.003 1143.57 353.832 1143.93 353.832C1144.4 353.832 1144.76 354.013 1145.02 354.376L1146.62 356.456Z" fill="#3B3B40"/>
<path fill-rule="evenodd" clip-rule="evenodd" d="M140.661 233C133.554 219.399 130.001 204.252 130.001 187.561C130.001 169.881 133.988 154.021 141.961 139.981C150.108 125.768 161.114 114.761 174.981 106.961C188.848 98.9876 204.188 95.001 221.001 95.001C237.988 95.001 253.414 98.9876 267.281 106.961C281.148 114.761 292.068 125.681 300.041 139.721C300.469 140.475 300.886 141.235 301.291 142H274.368C269.251 134.698 262.902 128.825 255.321 124.381C245.268 118.488 233.828 115.541 221.001 115.541C208.174 115.541 196.734 118.488 186.681 124.381C176.628 130.274 168.654 138.681 162.761 149.601C157.041 160.348 154.181 173.001 154.181 187.561C154.181 201.948 157.041 214.601 162.761 225.521C164.186 228.161 165.732 230.654 167.4 233H140.661ZM231 279.654C244.092 278.406 256.186 274.662 267.281 268.421C281.148 260.448 292.068 249.441 300.041 235.401C300.492 234.607 300.93 233.807 301.356 233H274.437C269.274 240.359 262.815 246.272 255.061 250.741C247.732 255.038 239.711 257.768 231 258.932V279.654Z" fill="#004EDA"/>
</svg>
